<?xml version="1.0" encoding="UTF-8"?><svg id="Layer_2" xmlns="http://www.w3.org/2000/svg" width="89.74mm" height="70.6mm" viewBox="0 0 254.39 200.13"><defs><style>.cls-1{fill:#17672f;}.cls-2{fill:#005333;}.cls-3{fill:#1a1449;}.cls-4{fill:#1d1a55;}.cls-5{fill:#00571f;}.cls-6{fill:#19255b;}.cls-7{fill:#005722;}.cls-8{fill:#fff9d7;}.cls-9{fill:#063;}.cls-10{fill:#005326;}</style></defs><g id="Layer_35"><rect class="cls-6" x="0" width="254.26" height="199.63"/><ellipse class="cls-8" cx="192.03" cy="60.91" rx="55.07" ry="57.77"/><polygon class="cls-4" points="181.93 188.59 78.57 190.46 128.43 14.29 181.93 188.59"/><polygon class="cls-3" points="223.4 199.99 134.72 200 179.12 55.72 223.4 199.99"/><polygon class="cls-3" points="244.62 183.08 171.02 184.41 215.66 36.86 244.51 125.64 244.62 183.08"/><polygon class="cls-4" points="109.84 164.4 6.48 166.28 55.23 11.95 109.84 164.4"/><polygon class="cls-4" points="51.68 173.18 .47 138.69 0 0 51.68 173.18"/><polygon class="cls-2" points="214.51 200 104.42 200 154.01 29.71 214.51 200"/><polygon class="cls-10" points="90.93 200 0 199.99 0 136.5 32.13 12.81 90.93 200"/><polygon class="cls-10" points="237.82 199.99 149.74 199.99 193.1 46.79 237.82 199.99"/><polygon class="cls-7" points="254.39 199.99 192.64 200 235.39 35.4 254.2 101.88 254.39 199.99"/><polygon class="cls-5" points="180.19 200 82.61 196.68 126.7 56.88 180.19 200"/><polygon class="cls-1" points="58.16 199.99 4.71 200.13 31.42 133.79 58.16 199.99"/><polygon class="cls-9" points="140.66 199.57 33.56 199.99 88.36 .6 140.66 199.57"/><polygon class="cls-1" points="217.72 199.99 174.11 200 195.74 134.17 217.72 199.99"/></g></svg>