<?xml version="1.0" encoding="UTF-8"?><svg id="Layer_2" xmlns="http://www.w3.org/2000/svg" width="30" height="30" viewBox="0 0 30 30"><defs><style>.cls-1{fill:#fff;}.cls-2{fill:#333;}</style></defs><g id="Layer_1-2"><g><path class="cls-2" d="M28.34,0H1.66C.74,0,0,.74,0,1.66V28.34c0,.91,.74,1.66,1.66,1.66h14.37v-11.6h-3.9v-4.54h3.9v-3.34c0-3.87,2.37-5.98,5.82-5.98,1.66,0,3.08,.12,3.49,.18v4.05h-2.38c-1.88,0-2.25,.89-2.25,2.21v2.89h4.5l-.59,4.54h-3.91v11.6h7.63c.91,0,1.66-.74,1.66-1.66V1.66c0-.91-.74-1.66-1.66-1.66Z"/><path id="f" class="cls-1" d="M20.71,30v-11.6h3.91l.59-4.54h-4.5v-2.89c0-1.31,.36-2.21,2.25-2.21h2.38V4.71c-.41-.06-1.84-.18-3.49-.18-3.46,0-5.82,2.11-5.82,5.98v3.34h-3.9v4.54h3.9v11.6h4.69Z"/></g></g></svg>