<?xml version="1.0" encoding="UTF-8"?><svg id="Layer_2" xmlns="http://www.w3.org/2000/svg" width="30.72" height="29.96" viewBox="0 0 30.72 29.96"><defs><style>.cls-1{fill:#333;fill-rule:evenodd;}</style></defs><g id="Layer_1-2"><path class="cls-1" d="M15.36,0C6.88,0,0,6.88,0,15.36c0,6.79,4.4,12.54,10.5,14.57,.77,.14,1.05-.33,1.05-.74,0-.36-.01-1.33-.02-2.61-4.27,.93-5.17-2.06-5.17-2.06-.7-1.77-1.71-2.25-1.71-2.25-1.39-.95,.11-.93,.11-.93,1.54,.11,2.35,1.58,2.35,1.58,1.37,2.35,3.59,1.67,4.47,1.28,.14-.99,.54-1.67,.98-2.05-3.41-.39-7-1.71-7-7.59,0-1.68,.6-3.05,1.58-4.12-.16-.39-.69-1.95,.15-4.06,0,0,1.29-.41,4.22,1.57,1.23-.34,2.54-.51,3.85-.52,1.3,0,2.62,.18,3.85,.52,2.93-1.99,4.22-1.57,4.22-1.57,.84,2.11,.31,3.68,.15,4.06,.98,1.07,1.58,2.44,1.58,4.12,0,5.9-3.59,7.2-7.01,7.58,.55,.47,1.04,1.41,1.04,2.84,0,2.05-.02,3.71-.02,4.21,0,.41,.28,.89,1.06,.74,6.1-2.04,10.49-7.79,10.49-14.57C30.72,6.88,23.84,0,15.36,0Z"/></g></svg>