<?xml version="1.0" encoding="UTF-8"?><svg id="Layer_2" xmlns="http://www.w3.org/2000/svg" width="38.5" height="30" viewBox="0 0 38.5 30"><defs><style>.cls-1{fill:#333;fill-rule:evenodd;}</style></defs><g id="Layer_1-2"><g id="Logo_FIXED"><path class="cls-1" d="M38.5,3.55c-1.42,.6-2.94,1.01-4.54,1.19,1.63-.94,2.88-2.42,3.47-4.19-1.53,.87-3.22,1.5-5.02,1.84-1.44-1.47-3.49-2.39-5.77-2.39-4.36,0-7.9,3.39-7.9,7.57,0,.59,.07,1.17,.2,1.73-6.56-.32-12.39-3.33-16.28-7.91-.68,1.12-1.07,2.42-1.07,3.81,0,2.63,1.39,4.95,3.51,6.3-1.3-.04-2.51-.38-3.58-.95,0,.03,0,.06,0,.1,0,3.67,2.72,6.73,6.34,7.42-.66,.17-1.36,.27-2.08,.27-.51,0-1-.05-1.48-.14,1.01,3.01,3.92,5.2,7.38,5.26-2.7,2.03-6.11,3.24-9.81,3.24-.64,0-1.27-.03-1.88-.1,3.5,2.15,7.65,3.4,12.11,3.4,14.53,0,22.47-11.54,22.47-21.55,0-.33,0-.65-.02-.98,1.54-1.07,2.88-2.4,3.94-3.92Z"/></g></g></svg>